<svg width="24" height="24" viewBox="0 0 24 24" fill="none" xmlns="http://www.w3.org/2000/svg">
<g clip-path="url(#clip0_12_1839)">
<path d="M7.2 17.6002C8.96731 17.6002 10.4 16.1675 10.4 14.4002C10.4 12.6329 8.96731 11.2002 7.2 11.2002C5.43269 11.2002 4 12.6329 4 14.4002C4 16.1675 5.43269 17.6002 7.2 17.6002Z" fill="#909090"/>
<path d="M14.7998 20C15.9044 20 16.7998 19.1046 16.7998 18C16.7998 16.8954 15.9044 16 14.7998 16C13.6952 16 12.7998 16.8954 12.7998 18C12.7998 19.1046 13.6952 20 14.7998 20Z" fill="#909090"/>
<path d="M15.1999 13.6C17.8509 13.6 19.9999 11.451 19.9999 8.8C19.9999 6.14903 17.8509 4 15.1999 4C12.5489 4 10.3999 6.14903 10.3999 8.8C10.3999 11.451 12.5489 13.6 15.1999 13.6Z" fill="#909090"/>
</g>
<defs>
<clipPath id="clip0_12_1839">
<rect width="24" height="24" fill="white"/>
</clipPath>
</defs>
</svg>
