<svg width="32" height="33" viewBox="0 0 32 33" fill="none" xmlns="http://www.w3.org/2000/svg">
<path d="M7.99992 29.8332C7.26659 29.8332 6.63881 29.5721 6.11659 29.0498C5.59436 28.5276 5.33325 27.8998 5.33325 27.1665V5.83317C5.33325 5.09984 5.59436 4.47206 6.11659 3.94984C6.63881 3.42762 7.26659 3.1665 7.99992 3.1665H23.9999C24.7333 3.1665 25.361 3.42762 25.8833 3.94984C26.4055 4.47206 26.6666 5.09984 26.6666 5.83317V27.1665C26.6666 27.8998 26.4055 28.5276 25.8833 29.0498C25.361 29.5721 24.7333 29.8332 23.9999 29.8332H7.99992ZM7.99992 27.1665H23.9999V5.83317H21.3333V15.1665L17.9999 13.1665L14.6666 15.1665V5.83317H7.99992V27.1665Z" fill="black"/>
</svg>
