<svg width="37" height="37" viewBox="0 0 37 37" fill="none" xmlns="http://www.w3.org/2000/svg">
<path d="M9.24984 33.9168C8.40192 33.9168 7.67605 33.6149 7.07223 33.0111C6.46841 32.4073 6.1665 31.6814 6.1665 30.8335V12.3335C6.1665 11.4856 6.46841 10.7597 7.07223 10.1559C7.67605 9.55207 8.40192 9.25016 9.24984 9.25016H12.3332C12.3332 7.55433 12.937 6.10259 14.1446 4.89495C15.3523 3.68732 16.804 3.0835 18.4998 3.0835C20.1957 3.0835 21.6474 3.68732 22.855 4.89495C24.0627 6.10259 24.6665 7.55433 24.6665 9.25016H27.7498C28.5978 9.25016 29.3236 9.55207 29.9274 10.1559C30.5313 10.7597 30.8332 11.4856 30.8332 12.3335V30.8335C30.8332 31.6814 30.5313 32.4073 29.9274 33.0111C29.3236 33.6149 28.5978 33.9168 27.7498 33.9168H9.24984ZM9.24984 30.8335H27.7498V12.3335H24.6665V15.4168C24.6665 15.8536 24.5188 16.2198 24.2233 16.5153C23.9278 16.8108 23.5616 16.9585 23.1248 16.9585C22.688 16.9585 22.3219 16.8108 22.0264 16.5153C21.7309 16.2198 21.5832 15.8536 21.5832 15.4168V12.3335H15.4165V15.4168C15.4165 15.8536 15.2688 16.2198 14.9733 16.5153C14.6778 16.8108 14.3116 16.9585 13.8748 16.9585C13.438 16.9585 13.0719 16.8108 12.7764 16.5153C12.4809 16.2198 12.3332 15.8536 12.3332 15.4168V12.3335H9.24984V30.8335ZM15.4165 9.25016H21.5832C21.5832 8.40225 21.2813 7.67638 20.6774 7.07256C20.0736 6.46874 19.3478 6.16683 18.4998 6.16683C17.6519 6.16683 16.9261 6.46874 16.3222 7.07256C15.7184 7.67638 15.4165 8.40225 15.4165 9.25016Z" fill="black"/>
</svg>
